<svg width="1600" height="1800" xmlns="http://www.w3.org/2000/svg" font-family="Inter, Arial, sans-serif">

  <!-- Title -->
  <text x="80" y="120" font-size="72" font-weight="700" fill="#1C2A5E">11 Groundbreaking Capabilities</text>

  <!-- --- CARD STYLE TEMPLATE (colors + layout replicated) --- -->

  <!-- Row 1 -->
  <rect x="80" y="180" width="700" height="150" rx="18" fill="#E8F1FF"/>
  <text x="110" y="235" font-size="32" font-weight="700" fill="#1C2A5E">1. Adaptive DAG Mutation</text>
  <text x="110" y="280" font-size="24" fill="#1C2A5E">Workflows restructure dynamically</text>

  <rect x="820" y="180" width="700" height="150" rx="18" fill="#E8F1FF"/>
  <text x="850" y="235" font-size="32" font-weight="700" fill="#1C2A5E">2. RL-Driven Evolution</text>
  <text x="850" y="280" font-size="24" fill="#1C2A5E">Continuous reinforcement learning</text>

  <!-- Row 2 -->
  <rect x="80" y="360" width="700" height="150" rx="18" fill="#E8F9F0"/>
  <text x="110" y="415" font-size="32" font-weight="700" fill="#276738">3. Agent Cooperative Rewriting</text>
  <text x="110" y="460" font-size="24" fill="#276738">Multi-agent consensus optimization</text>

  <rect x="820" y="360" width="700" height="150" rx="18" fill="#E8F9F0"/>
  <text x="850" y="415" font-size="32" font-weight="700" fill="#276738">4. Federated DAG Negotiation</text>
  <text x="850" y="460" font-size="24" fill="#276738">Cross-cloud workflow coordination</text>

  <!-- Row 3 -->
  <rect x="80" y="540" width="700" height="150" rx="18" fill="#FCE7EE"/>
  <text x="110" y="595" font-size="32" font-weight="700" fill="#B72654">5. Graph Embeddings & Patterns</text>
  <text x="110" y="640" font-size="24" fill="#B72654">Auto-generate optimized workflows</text>

  <rect x="820" y="540" width="700" height="150" rx="18" fill="#FCE7EE"/>
  <text x="850" y="595" font-size="32" font-weight="700" fill="#B72654">6. DAG Provenance Ledger</text>
  <text x="850" y="640" font-size="24" fill="#B72654">Cryptographic audit trails</text>

  <!-- Row 4 -->
  <rect x="80" y="720" width="700" height="150" rx="18" fill="#E8F1FF"/>
  <text x="110" y="775" font-size="32" font-weight="700" fill="#1C2A5E">7. Self-Healing Architecture</text>
  <text x="110" y="820" font-size="24" fill="#1C2A5E">Automatic failure detection & recovery</text>

  <rect x="820" y="720" width="700" height="150" rx="18" fill="#E8F1FF"/>
  <text x="850" y="775" font-size="32" font-weight="700" fill="#1C2A5E">8. Memory-Conditioned Restructuring</text>
  <text x="850" y="820" font-size="24" fill="#1C2A5E">Adapts based on historical patterns</text>

  <!-- Row 5 -->
  <rect x="80" y="900" width="700" height="150" rx="18" fill="#E8F9F0"/>
  <text x="110" y="955" font-size="32" font-weight="700" fill="#276738">9. Streaming DAG Rewiring</text>
  <text x="110" y="1000" font-size="24" fill="#276738">Real-time workflow modifications</text>

  <rect x="820" y="900" width="700" height="150" rx="18" fill="#E8F9F0"/>
  <text x="850" y="955" font-size="32" font-weight="700" fill="#276738">10. Execution-Trace Optimization</text>
  <text x="850" y="1000" font-size="24" fill="#276738">Fine-grained performance analysis</text>

  <!-- Row 6 (single full-width card) -->
  <rect x="80" y="1080" width="1440" height="150" rx="18" fill="#FCE7EE"/>
  <text x="110" y="1135" font-size="32" font-weight="700" fill="#B72654">11. Multi-Agent Planning Fabric</text>
  <text x="110" y="1180" font-size="24" fill="#B72654">Distributed cognitive architecture</text>

  <!-- Footer Banner -->
  <rect x="80" y="1280" width="1440" height="120" rx="18" fill="#1C4C72"/>
  <text x="160" y="1355" font-size="34" font-weight="600" fill="white">Each capability continuously improves through reinforcement learning</text>

</svg>
